<svg class="diagram-root" style="background: #f5f6f6" xmlns="http://www.w3.org/2000/svg" xmlns:xlink="http://www.w3.org/1999/xlink"><style>.diagram-root { font-family: "Helvetica Neue", sans-serif; font-size: 12px; } .t { overflow: visible; } .t-bg { y: 40; fill: #fff;   } .th { fill: #005aa0;   } .tht { fill: #fff; font-size: 14px;  } .tf { fill: #323c46; overflow: visible; } .tf.pk { fill: #005aa0; font-weight: bold; } .tf.fk { font-weight: bold; } .ty { fill: #adb1b5; font-weight: normal; text-anchor: end; } .r { fill: transparent; stroke: #c3c3c3; stroke-width: 1; } .l { stroke: 1; } .i { fill: #c2c7ce; stroke: #c2c7ce; } .i.ix { fill: #afb3b6; stroke: #000; } .fa { fill: transparent; overflow: visible; } .fa .bg.hover { fill: #f7f7f7; } .c { cy: 12; r: 4; stroke: #d2d2dc; fill: #d2d2dc; } .hr { fill: transparent; stroke: #323c46; stroke-opacity: 0.035; stroke-width: 13; } .dc { stroke: #fa5a3c; fill: #fa5a3c; } .x { stroke: white; stroke-width: 1; } .hl .th { fill: #1b9bff; } .hl .tht {  } .fhl .bg { fill: #e7f4ff; } .fhls .bg {  } .r.hl { stroke: #1b9bff; } .dim { opacity: 0.25; }</style><g class="drawing-wrapper" transform="translate(117, 37.5) scale(1,1)"><g class="rs"><path d="M 124.43 414.5 m -1, 0 a 1,1 0 1,0 2,0 a 1,1 0 1,0 -2,0 M 124.43 414.5 m -0.5, 0 a 0.5,0.5 0 1,0 1,0 a 0.5,0.5 0 1,0 -1,0  M124.43 414.5 L124.43 414.5 136.43 414.5 M130.43 420.5 L130.43 420.5 130.43 408.5 M136.43 414.5 Q 188.57 414.5, 240.7 372.63 T 344.96000000000004 330.75 M 356.96000000000004 330.75 m -1, 0 a 1,1 0 1,0 2,0 a 1,1 0 1,0 -2,0 M 356.96000000000004 330.75 m -0.5, 0 a 0.5,0.5 0 1,0 1,0 a 0.5,0.5 0 1,0 -1,0  M356.96000000000004 330.75 L356.96000000000004 330.75 344.96000000000004 330.75 M350.96000000000004 336.75 L350.96000000000004 336.75 350.96000000000004 324.75" id="h86706906" class="r"></path><path d="M 301.25 53.25 m -1, 0 a 1,1 0 1,0 2,0 a 1,1 0 1,0 -2,0 M 301.25 53.25 m -0.5, 0 a 0.5,0.5 0 1,0 1,0 a 0.5,0.5 0 1,0 -1,0  M301.25 53.25 L301.25 53.25 289.25 53.25 M295.25 59.25 L295.25 59.25 295.25 47.25 M289.25 53.25 C 239.25 53.25, 205.82399999999996 330.75, 344.96000000000004 330.75 M 356.96000000000004 330.75 m -1, 0 a 1,1 0 1,0 2,0 a 1,1 0 1,0 -2,0 M 356.96000000000004 330.75 m -0.5, 0 a 0.5,0.5 0 1,0 1,0 a 0.5,0.5 0 1,0 -1,0  M356.96000000000004 330.75 L356.96000000000004 330.75 344.96000000000004 330.75 M350.96000000000004 336.75 L350.96000000000004 336.75 350.96000000000004 324.75" id="h2429653312" class="r"></path><path d="M 140.56 692 m -1, 0 a 1,1 0 1,0 2,0 a 1,1 0 1,0 -2,0 M 140.56 692 m -0.5, 0 a 0.5,0.5 0 1,0 1,0 a 0.5,0.5 0 1,0 -1,0  M140.56 692 L140.56 692 152.56 692 M146.56 698 L146.56 698 146.56 686 M152.56 692 Q 200.66 692, 248.76 511.38 T 344.96000000000004 330.75 M 356.96000000000004 330.75 m -1, 0 a 1,1 0 1,0 2,0 a 1,1 0 1,0 -2,0 M 356.96000000000004 330.75 m -0.5, 0 a 0.5,0.5 0 1,0 1,0 a 0.5,0.5 0 1,0 -1,0  M356.96000000000004 330.75 L356.96000000000004 330.75 344.96000000000004 330.75 M350.96000000000004 336.75 L350.96000000000004 336.75 350.96000000000004 324.75" id="h1676951184" class="r"></path><path d="M 730.3 49.5 m -1, 0 a 1,1 0 1,0 2,0 a 1,1 0 1,0 -2,0 M 730.3 49.5 m -0.5, 0 a 0.5,0.5 0 1,0 1,0 a 0.5,0.5 0 1,0 -1,0  M730.3 49.5 L730.3 49.5 742.3 49.5 M736.3 55.5 L736.3 55.5 736.3 43.5 M742.3 49.5 C 792.3 49.5, 914.262 330.75, 539.03 330.75 M 527.03 330.75 m -1, 0 a 1,1 0 1,0 2,0 a 1,1 0 1,0 -2,0 M 527.03 330.75 m -0.5, 0 a 0.5,0.5 0 1,0 1,0 a 0.5,0.5 0 1,0 -1,0  M527.03 330.75 L527.03 330.75 539.03 330.75 M533.03 336.75 L533.03 336.75 533.03 324.75" id="h3392659655" class="r"></path><path d="M 757.5 273.25 m -1, 0 a 1,1 0 1,0 2,0 a 1,1 0 1,0 -2,0 M 757.5 273.25 m -0.5, 0 a 0.5,0.5 0 1,0 1,0 a 0.5,0.5 0 1,0 -1,0  M757.5 273.25 L757.5 273.25 745.5 273.25 M751.5 279.25 L751.5 279.25 751.5 267.25 M745.5 273.25 Q 693.89 273.25, 642.27 302 T 539.03 330.75 M 527.03 330.75 m -1, 0 a 1,1 0 1,0 2,0 a 1,1 0 1,0 -2,0 M 527.03 330.75 m -0.5, 0 a 0.5,0.5 0 1,0 1,0 a 0.5,0.5 0 1,0 -1,0  M527.03 330.75 L527.03 330.75 539.03 330.75 M533.03 336.75 L533.03 336.75 533.03 324.75" id="h2750836456" class="r"></path><path d="M 623.75 588.25 m -1, 0 a 1,1 0 1,0 2,0 a 1,1 0 1,0 -2,0 M 623.75 588.25 m -0.5, 0 a 0.5,0.5 0 1,0 1,0 a 0.5,0.5 0 1,0 -1,0  M623.75 588.25 L623.75 588.25 611.75 588.25 M617.75 594.25 L617.75 594.25 617.75 582.25 M611.75 588.25 Q 593.57 588.25, 575.39 459.5 T 539.03 330.75 M 527.03 330.75 m -1, 0 a 1,1 0 1,0 2,0 a 1,1 0 1,0 -2,0 M 527.03 330.75 m -0.5, 0 a 0.5,0.5 0 1,0 1,0 a 0.5,0.5 0 1,0 -1,0  M527.03 330.75 L527.03 330.75 539.03 330.75 M533.03 336.75 L533.03 336.75 533.03 324.75" id="h597685382" class="r"></path><path d="M 1060.18 452.54 m -1, 0 a 1,1 0 1,0 2,0 a 1,1 0 1,0 -2,0 M 1060.18 452.54 m -0.5, 0 a 0.5,0.5 0 1,0 1,0 a 0.5,0.5 0 1,0 -1,0  M1060.18 452.54 L1060.18 452.54 1048.18 452.54 M1054.18 458.54 L1054.18 458.54 1054.18 446.54 M1048.18 452.54 Q 920.9 452.54, 793.61 391.65 T 539.03 330.75 M 527.03 330.75 m -1, 0 a 1,1 0 1,0 2,0 a 1,1 0 1,0 -2,0 M 527.03 330.75 m -0.5, 0 a 0.5,0.5 0 1,0 1,0 a 0.5,0.5 0 1,0 -1,0  M527.03 330.75 L527.03 330.75 539.03 330.75 M533.03 336.75 L533.03 336.75 533.03 324.75" id="h2619756997" class="r"></path><path d="M 1060.18 477.54 m -1, 0 a 1,1 0 1,0 2,0 a 1,1 0 1,0 -2,0 M 1060.18 477.54 m -0.5, 0 a 0.5,0.5 0 1,0 1,0 a 0.5,0.5 0 1,0 -1,0  M1060.18 477.54 L1060.18 477.54 1048.18 477.54 M1054.18 483.54 L1054.18 483.54 1054.18 471.54 M1048.18 477.54 Q 920.9 477.54, 793.61 404.15 T 539.03 330.75 M 527.03 330.75 m -1, 0 a 1,1 0 1,0 2,0 a 1,1 0 1,0 -2,0 M 527.03 330.75 m -0.5, 0 a 0.5,0.5 0 1,0 1,0 a 0.5,0.5 0 1,0 -1,0  M527.03 330.75 L527.03 330.75 539.03 330.75 M533.03 336.75 L533.03 336.75 533.03 324.75" id="h2978146058" class="r"></path></g><g class="hrs"></g><g class="ts"><svg width="219.43" height="225" x="-95" y="357.5" id="h444425260" class="t"><rect height="40" width="219.43" class="th"></rect><text x="13" y="25" class="tht">ipos</text><rect height="185" width="219.43" class="t-bg"></rect><text x="13" y="61" class="tf pk">object_id<tspan x="206.43" class="ty">varchar</tspan></text><path d="M7,14A2,2 0 0,1 5,12A2,2 0 0,1 7,10A2,2 0 0,1 9,12A2,2 0 0,1 7,14M12.65,10C11.83,7.67 9.61,6 7, 6A6, 6 0 0, 0 1, 12A6, 6 0 0, 0 7, 18C9.61, 18 11.83, 16.33 12.65, 14H17V18H21V14H23V10H12.65Z" class="i pk" transform="translate(146.416328125, 48) scale(0.65)"></path><text x="13" y="86" class="tf">valuation_amount<tspan x="206.43" class="ty">float</tspan></text><text x="13" y="111" class="tf">valuation_currency_code<tspan x="206.43" class="ty">varchar</tspan></text><text x="13" y="136" class="tf">raised_amount<tspan x="206.43" class="ty">float</tspan></text><text x="13" y="161" class="tf">raised_currency_code<tspan x="206.43" class="ty">varchar</tspan></text><text x="13" y="186" class="tf">public_at<tspan x="206.43" class="ty">date</tspan></text><text x="13" y="211" class="tf">stock_symbol<tspan x="206.43" class="ty">varchar</tspan></text></svg><svg width="158.06" height="325" x="-17.5" y="635" id="h3146922080" class="t"><rect height="40" width="158.06" class="th"></rect><text x="13" y="25" class="tht">offices</text><rect height="285" width="158.06" class="t-bg"></rect><text x="13" y="61" class="tf pk">object_id<tspan x="145.06" class="ty">varchar</tspan></text><path d="M7,14A2,2 0 0,1 5,12A2,2 0 0,1 7,10A2,2 0 0,1 9,12A2,2 0 0,1 7,14M12.65,10C11.83,7.67 9.61,6 7, 6A6, 6 0 0, 0 1, 12A6, 6 0 0, 0 7, 18C9.61, 18 11.83, 16.33 12.65, 14H17V18H21V14H23V10H12.65Z" class="i pk" transform="translate(85.046328125, 48) scale(0.65)"></path><text x="13" y="86" class="tf">description<tspan x="145.06" class="ty">varchar</tspan></text><text x="13" y="111" class="tf">region<tspan x="145.06" class="ty">varchar</tspan></text><text x="13" y="136" class="tf">address1<tspan x="145.06" class="ty">varchar</tspan></text><text x="13" y="161" class="tf">address2<tspan x="145.06" class="ty">varchar</tspan></text><text x="13" y="186" class="tf">city<tspan x="145.06" class="ty">varchar</tspan></text><text x="13" y="211" class="tf">zip_code<tspan x="145.06" class="ty">int</tspan></text><text x="13" y="236" class="tf">state_code<tspan x="145.06" class="ty">varchar</tspan></text><text x="13" y="261" class="tf">country_code<tspan x="145.06" class="ty">varchar</tspan></text><text x="13" y="286" class="tf">latitiude<tspan x="145.06" class="ty">float</tspan></text><text x="13" y="311" class="tf">longitude<tspan x="145.06" class="ty">float</tspan></text></svg><svg width="154.05" height="175" x="576.25" y="-7.5" id="h4182704473" class="t"><rect height="40" width="154.05" class="th"></rect><text x="13" y="25" class="tht">degrees</text><rect height="135" width="154.05" class="t-bg"></rect><text x="13" y="61" class="tf pk">object_id<tspan x="141.05" class="ty">varchar</tspan></text><path d="M7,14A2,2 0 0,1 5,12A2,2 0 0,1 7,10A2,2 0 0,1 9,12A2,2 0 0,1 7,14M12.65,10C11.83,7.67 9.61,6 7, 6A6, 6 0 0, 0 1, 12A6, 6 0 0, 0 7, 18C9.61, 18 11.83, 16.33 12.65, 14H17V18H21V14H23V10H12.65Z" class="i pk" transform="translate(81.03632812500001, 48) scale(0.65)"></path><text x="13" y="86" class="tf">degree_type<tspan x="141.05" class="ty">varchar</tspan></text><text x="13" y="111" class="tf">subject<tspan x="141.05" class="ty">varchar</tspan></text><text x="13" y="136" class="tf">institution<tspan x="141.05" class="ty">varchar</tspan></text><text x="13" y="161" class="tf">graduated_at<tspan x="141.05" class="ty">date</tspan></text></svg><svg width="170.07" height="650" x="356.96000000000004" y="273.75" id="h3388108102" class="t"><rect height="40" width="170.07" class="th"></rect><text x="13" y="25" class="tht">objects</text><rect height="610" width="170.07" class="t-bg"></rect><text x="13" y="61" class="tf pk">object_id<tspan x="157.07" class="ty">varchar</tspan></text><path d="M7,14A2,2 0 0,1 5,12A2,2 0 0,1 7,10A2,2 0 0,1 9,12A2,2 0 0,1 7,14M12.65,10C11.83,7.67 9.61,6 7, 6A6, 6 0 0, 0 1, 12A6, 6 0 0, 0 7, 18C9.61, 18 11.83, 16.33 12.65, 14H17V18H21V14H23V10H12.65Z" class="i pk" transform="translate(97.056328125, 48) scale(0.65)"></path><text x="13" y="86" class="tf">entity_type<tspan x="157.07" class="ty">varchar</tspan></text><text x="13" y="111" class="tf">parent_id<tspan x="157.07" class="ty">varchar</tspan></text><text x="13" y="136" class="tf">name<tspan x="157.07" class="ty">varchar</tspan></text><text x="13" y="161" class="tf">category_code<tspan x="157.07" class="ty">varchar</tspan></text><text x="13" y="186" class="tf">status<tspan x="157.07" class="ty">varchar</tspan></text><text x="13" y="211" class="tf">founded_at<tspan x="157.07" class="ty">date</tspan></text><text x="13" y="236" class="tf">closed_at<tspan x="157.07" class="ty">date</tspan></text><text x="13" y="261" class="tf">country_code<tspan x="157.07" class="ty">varchar</tspan></text><text x="13" y="286" class="tf">state_code<tspan x="157.07" class="ty">varchar</tspan></text><text x="13" y="311" class="tf">city<tspan x="157.07" class="ty">varchar</tspan></text><text x="13" y="336" class="tf">region<tspan x="157.07" class="ty">varchar</tspan></text><text x="13" y="361" class="tf">first_investment_at<tspan x="157.07" class="ty">date</tspan></text><text x="13" y="386" class="tf">last_investment_at<tspan x="157.07" class="ty">date</tspan></text><text x="13" y="411" class="tf">investment_rounds<tspan x="157.07" class="ty">int</tspan></text><text x="13" y="436" class="tf">invested_companies<tspan x="157.07" class="ty">int</tspan></text><text x="13" y="461" class="tf">first_funding_at<tspan x="157.07" class="ty">date</tspan></text><text x="13" y="486" class="tf">last_funding_at<tspan x="157.07" class="ty">date</tspan></text><text x="13" y="511" class="tf">funding_rounds<tspan x="157.07" class="ty">int</tspan></text><text x="13" y="536" class="tf">funding_total_usd<tspan x="157.07" class="ty">float</tspan></text><text x="13" y="561" class="tf">first_milestone_at<tspan x="157.07" class="ty">date</tspan></text><text x="13" y="586" class="tf">last_milestone_at<tspan x="157.07" class="ty">date</tspan></text><text x="13" y="611" class="tf">milestone<tspan x="157.07" class="ty">int</tspan></text><text x="13" y="636" class="tf">relationships<tspan x="157.07" class="ty">int</tspan></text></svg><svg width="169.85" height="150" x="301.25" y="-3.75" id="h368100147" class="t"><rect height="40" width="169.85" class="th"></rect><text x="13" y="25" class="tht">people</text><rect height="110" width="169.85" class="t-bg"></rect><text x="13" y="61" class="tf pk">object_id<tspan x="156.85" class="ty">varchar</tspan></text><path d="M7,14A2,2 0 0,1 5,12A2,2 0 0,1 7,10A2,2 0 0,1 9,12A2,2 0 0,1 7,14M12.65,10C11.83,7.67 9.61,6 7, 6A6, 6 0 0, 0 1, 12A6, 6 0 0, 0 7, 18C9.61, 18 11.83, 16.33 12.65, 14H17V18H21V14H23V10H12.65Z" class="i pk" transform="translate(96.836328125, 48) scale(0.65)"></path><text x="13" y="86" class="tf">first_name<tspan x="156.85" class="ty">varchar</tspan></text><text x="13" y="111" class="tf">last_name<tspan x="156.85" class="ty">varchar</tspan></text><text x="13" y="136" class="tf">affiliation_name<tspan x="156.85" class="ty">varchar</tspan></text></svg><svg width="236.77" height="450" x="623.75" y="506.25" id="h874500033" class="t"><rect height="40" width="236.77" class="th"></rect><text x="13" y="25" class="tht">funding_rounds</text><rect height="410" width="236.77" class="t-bg"></rect><text x="13" y="61" class="tf">funding_round_id<tspan x="223.77" class="ty">int</tspan></text><text x="13" y="86" class="tf pk">object_id<tspan x="223.77" class="ty">varchar</tspan></text><path d="M7,14A2,2 0 0,1 5,12A2,2 0 0,1 7,10A2,2 0 0,1 9,12A2,2 0 0,1 7,14M12.65,10C11.83,7.67 9.61,6 7, 6A6, 6 0 0, 0 1, 12A6, 6 0 0, 0 7, 18C9.61, 18 11.83, 16.33 12.65, 14H17V18H21V14H23V10H12.65Z" class="i pk" transform="translate(163.756328125, 73) scale(0.65)"></path><text x="13" y="111" class="tf">funded_at<tspan x="223.77" class="ty">date</tspan></text><text x="13" y="136" class="tf">funding_round_type<tspan x="223.77" class="ty">varchar</tspan></text><text x="13" y="161" class="tf">funding_round_code<tspan x="223.77" class="ty">varchar</tspan></text><text x="13" y="186" class="tf">raised_amount_usd<tspan x="223.77" class="ty">float</tspan></text><text x="13" y="211" class="tf">raised_amount<tspan x="223.77" class="ty">float</tspan></text><text x="13" y="236" class="tf">raised_currency_code<tspan x="223.77" class="ty">varchar</tspan></text><text x="13" y="261" class="tf">pre_money_valuation_usd<tspan x="223.77" class="ty">float</tspan></text><text x="13" y="286" class="tf">pre_money_valuation<tspan x="223.77" class="ty">float</tspan></text><text x="13" y="311" class="tf">pre_money_currency_code<tspan x="223.77" class="ty">varchar</tspan></text><text x="13" y="336" class="tf">post_money_valuation_usd<tspan x="223.77" class="ty">float</tspan></text><text x="13" y="361" class="tf">post_money_currency_code<tspan x="223.77" class="ty">varchar</tspan></text><text x="13" y="386" class="tf">participants<tspan x="223.77" class="ty">int</tspan></text><text x="13" y="411" class="tf">is_first_round<tspan x="223.77" class="ty">boolean</tspan></text><text x="13" y="436" class="tf">is_last_round<tspan x="223.77" class="ty">boolean</tspan></text></svg><svg width="204.08" height="175" x="757.5" y="216.25" id="h1787432620" class="t"><rect height="40" width="204.08" class="th"></rect><text x="13" y="25" class="tht">funds</text><rect height="135" width="204.08" class="t-bg"></rect><text x="13" y="61" class="tf pk">object_id<tspan x="191.08" class="ty">varchar</tspan></text><path d="M7,14A2,2 0 0,1 5,12A2,2 0 0,1 7,10A2,2 0 0,1 9,12A2,2 0 0,1 7,14M12.65,10C11.83,7.67 9.61,6 7, 6A6, 6 0 0, 0 1, 12A6, 6 0 0, 0 7, 18C9.61, 18 11.83, 16.33 12.65, 14H17V18H21V14H23V10H12.65Z" class="i pk" transform="translate(131.066328125, 48) scale(0.65)"></path><text x="13" y="86" class="tf">name<tspan x="191.08" class="ty">varchar</tspan></text><text x="13" y="111" class="tf">funded_at<tspan x="191.08" class="ty">date</tspan></text><text x="13" y="136" class="tf">raised_amount<tspan x="191.08" class="ty">float</tspan></text><text x="13" y="161" class="tf">raised_currency_code<tspan x="191.08" class="ty">varchar</tspan></text></svg><svg width="202.09" height="225" x="1048.75" y="7.5" id="h704854851" class="t"><rect height="40" width="202.09" class="th"></rect><text x="13" y="25" class="tht">relationships</text><rect height="185" width="202.09" class="t-bg"></rect><text x="13" y="61" class="tf">person_object_id<tspan x="189.09" class="ty">varchar</tspan></text><text x="13" y="86" class="tf">relationship_object_id<tspan x="189.09" class="ty">varchar</tspan></text><text x="13" y="111" class="tf">start_at<tspan x="189.09" class="ty">date</tspan></text><text x="13" y="136" class="tf">end_at<tspan x="189.09" class="ty">date</tspan></text><text x="13" y="161" class="tf">is_past<tspan x="189.09" class="ty">boolean</tspan></text><text x="13" y="186" class="tf">sequence<tspan x="189.09" class="ty">int</tspan></text><text x="13" y="211" class="tf">title<tspan x="189.09" class="ty">varchar</tspan></text></svg><svg width="90" height="200" x="1060.18" y="395.54" id="h446568610" class="t"><rect height="40" width="90" class="th"></rect><text x="13" y="25" class="tht">Table 11</text><rect height="160" width="90" class="t-bg"></rect><text x="13" y="61" class="tf fk">...<tspan x="77" class="ty"></tspan></text><text x="13" y="86" class="tf fk">...<tspan x="77" class="ty"></tspan></text><text x="13" y="111" class="tf">...<tspan x="77" class="ty"></tspan></text><text x="13" y="136" class="tf">...<tspan x="77" class="ty"></tspan></text><text x="13" y="161" class="tf">...<tspan x="77" class="ty"></tspan></text><text x="13" y="186" class="tf">...<tspan x="77" class="ty"></tspan></text></svg><svg width="197.43" height="125" x="990.89" y="674.82" id="h4260720445" class="t"><rect height="40" width="197.43" class="th"></rect><text x="13" y="25" class="tht">investments</text><rect height="85" width="197.43" class="t-bg"></rect><text x="13" y="61" class="tf">funding_round_id<tspan x="184.43" class="ty">int</tspan></text><text x="13" y="86" class="tf pk">funded_object_id<tspan x="184.43" class="ty">varchar</tspan></text><path d="M7,14A2,2 0 0,1 5,12A2,2 0 0,1 7,10A2,2 0 0,1 9,12A2,2 0 0,1 7,14M12.65,10C11.83,7.67 9.61,6 7, 6A6, 6 0 0, 0 1, 12A6, 6 0 0, 0 7, 18C9.61, 18 11.83, 16.33 12.65, 14H17V18H21V14H23V10H12.65Z" class="i pk" transform="translate(124.416328125, 73) scale(0.65)"></path><text x="13" y="111" class="tf">investor_object_id<tspan x="184.43" class="ty">varchar</tspan></text></svg><svg width="170.07" height="150" x="-83.75" y="17.5" id="h862057091" class="t"><rect height="40" width="170.07" class="th"></rect><text x="13" y="25" class="tht">milestones</text><rect height="110" width="170.07" class="t-bg"></rect><text x="13" y="61" class="tf pk">object_id<tspan x="157.07" class="ty">varchar</tspan></text><path d="M7,14A2,2 0 0,1 5,12A2,2 0 0,1 7,10A2,2 0 0,1 9,12A2,2 0 0,1 7,14M12.65,10C11.83,7.67 9.61,6 7, 6A6, 6 0 0, 0 1, 12A6, 6 0 0, 0 7, 18C9.61, 18 11.83, 16.33 12.65, 14H17V18H21V14H23V10H12.65Z" class="i pk" transform="translate(97.056328125, 48) scale(0.65)"></path><text x="13" y="86" class="tf">milestone_at<tspan x="157.07" class="ty">date</tspan></text><text x="13" y="111" class="tf">milestone_code<tspan x="157.07" class="ty">varchar</tspan></text><text x="13" y="136" class="tf">description<tspan x="157.07" class="ty">varchar</tspan></text></svg></g></g><text class="qdbd-link" x="10" y="20">www.quickdatabasediagrams.com</text></svg>